<svg width="30" height="30" viewBox="0 0 30 30" fill="none" xmlns="http://www.w3.org/2000/svg">
<path d="M28.5423 2.11014C28.5965 2.1541 28.6412 2.20947 28.673 2.27158L29.4402 3.77158C29.4578 3.80596 29.4714 3.84237 29.4808 3.87983L29.981 5.87983C29.9911 5.92039 29.9963 5.9621 29.9963 6.00391V8.06233C29.9963 8.16264 29.9666 8.26145 29.9109 8.34491L28.6435 10.2458C28.6276 10.2697 28.6097 10.2922 28.5899 10.313L22.8755 16.3343C22.8654 16.3449 22.8486 16.3452 22.8381 16.335C22.8276 16.3247 22.8109 16.325 22.8008 16.3356L10.3994 29.2835C10.2062 29.4851 9.88536 29.4896 9.68676 29.2933C9.49251 29.1013 9.48822 28.789 9.67713 28.5918L27.3706 10.1185C27.3742 10.1148 27.3801 10.1147 27.3837 10.1183C27.3874 10.1219 27.3933 10.1218 27.3968 10.1181L27.8107 9.68201C27.8342 9.65723 27.8555 9.63048 27.8745 9.60205L28.8362 8.15969C28.9457 7.99541 29.0042 7.80239 29.0042 7.60495V6.19007C29.0042 6.10828 28.9941 6.02679 28.9743 5.94744L28.5611 4.29542C28.5427 4.22171 28.5159 4.15034 28.4813 4.08269L27.9373 3.01915C27.8739 2.8951 27.7852 2.78567 27.677 2.6979L26.7085 1.91231L25.6037 1.17576C25.4394 1.06625 25.2464 1.00781 25.049 1.00781H23.7416C23.6341 1.00781 23.5273 1.02514 23.4254 1.05913L22.1864 1.4721L20.5012 2.30251C20.4926 2.30674 20.4908 2.31819 20.4977 2.32485C20.5031 2.33011 20.5033 2.33875 20.4981 2.34425L16.6098 6.4765L15.8916 7.31444C15.882 7.32563 15.8651 7.3268 15.854 7.31703C15.8434 7.30758 15.8271 7.30833 15.8173 7.31872L4.07324 19.7997C4.06926 19.8039 4.06931 19.8105 4.07335 19.8147C4.07749 19.8189 4.07743 19.8257 4.07323 19.8299L2.20076 21.7024C2.14767 21.7555 2.10073 21.8144 2.06083 21.878L1.45983 22.8357C1.39218 22.9435 1.34573 23.0633 1.32298 23.1885L1.00824 24.9207C0.997519 24.9797 0.992128 25.0395 0.992128 25.0995L0.992128 26.2685C0.992128 26.4487 1.04086 26.6256 1.13316 26.7805L1.59157 27.5495C1.70015 27.7317 1.86384 27.8746 2.05897 27.9576L3.56414 28.5982C3.61453 28.6196 3.66661 28.6369 3.71983 28.6498L4.83747 28.9211C4.98838 28.9577 5.14574 28.9587 5.29709 28.924L6.30793 28.6919C6.44734 28.6599 6.57826 28.5984 6.69186 28.5114L7.90815 27.5808L8.88184 26.6071L20.8933 14.1508C20.9006 14.1432 20.9005 14.131 20.893 14.1235C20.8854 14.1159 20.8854 14.1036 20.893 14.0959L23.7123 11.2766C23.7672 11.2218 23.8086 11.1548 23.8331 11.0812L24.153 10.1214C24.1873 10.0188 24.1873 9.90779 24.153 9.80516L23.8137 8.78726C23.7955 8.73239 23.7678 8.6811 23.732 8.63569L23.0137 7.7252C22.978 7.68003 22.9349 7.64135 22.8861 7.61086L21.9437 7.022C21.8643 6.97235 21.7725 6.94602 21.6788 6.94602H20.4918C20.4069 6.94602 20.3233 6.96766 20.2491 7.0089L19.0462 7.67685C19.0227 7.68992 19.0003 7.70486 18.9792 7.72154L17.5656 8.83755L12.9399 13.4633C12.7446 13.6585 12.4281 13.6585 12.2328 13.4633C12.0375 13.268 12.0375 12.9514 12.2328 12.7562L16.9 8.089L18.3595 6.93668C18.4229 6.88664 18.4902 6.84181 18.5608 6.80261L19.7636 6.13465C19.9864 6.01094 20.237 5.94602 20.4918 5.94602H21.6788C21.9599 5.94602 22.2353 6.025 22.4737 6.17396L23.416 6.76283C23.5624 6.85429 23.6919 6.97033 23.7988 7.10583L24.5171 8.01632C24.6245 8.15256 24.7076 8.30641 24.7624 8.47103L25.1017 9.48893C25.2044 9.79683 25.2044 10.1297 25.1017 10.4376L24.7818 11.3974C24.7081 11.6184 24.5841 11.8191 24.4194 11.9838L23.0839 13.3192L10.5718 26.2948C10.5669 26.2999 10.5669 26.308 10.5718 26.3131C10.5768 26.3182 10.5767 26.3264 10.5717 26.3315L8.55744 28.3457L7.03125 29.5135C6.97542 29.5562 6.91066 29.5868 6.84214 29.6025L5.17316 29.9856C5.09919 30.0026 5.02228 30.0021 4.94853 29.9842L3.37007 29.6011C3.34398 29.5948 3.3184 29.5863 3.29369 29.5758L1.22633 28.696C1.12952 28.6548 1.04754 28.5826 0.993669 28.4922L0.0717278 26.9456C0.0247833 26.8668 0 26.7763 0 26.6846V24.9633C0 24.9326 0.00275753 24.902 0.00823928 24.8718L0.399317 22.7194C0.410863 22.6559 0.434504 22.5947 0.468835 22.54L1.31449 21.1924C1.33451 21.1605 1.35816 21.1308 1.38479 21.1042L2.87499 19.614L15.8822 5.79065L18.1376 3.15931L19.6503 1.63202C19.689 1.59296 19.7342 1.56033 19.7835 1.53603L21.8136 0.535706L23.3453 0.025119C23.3952 0.00850785 23.4475 0 23.5 0H25.5C25.5967 0 25.6918 0.029005 25.7722 0.0826242L27.2915 1.0955L28.5423 2.11014Z" fill="url(#paint0_linear_1_46)"/>
<defs>
<linearGradient id="paint0_linear_1_46" x1="2" y1="2" x2="24" y2="30" gradientUnits="userSpaceOnUse">
<stop offset="0.00086653" stop-color="#1E2121"/>
<stop offset="0.533" stop-color="#C5C8C9"/>
<stop offset="0.884849" stop-color="#1E2121"/>
</linearGradient>
</defs>
</svg>
